<svg xmlns="http://www.w3.org/2000/svg" width="1200" height="1400" viewBox="0 0 1200 1400" version="1.1"><path d="M 321 232.459 C 321 232.833, 322.400 235.174, 324.111 237.661 C 331.036 247.727, 341.593 271.106, 347.067 288.500 C 354.257 311.350, 356.816 328.696, 357.981 362.500 C 358.493 377.350, 359.627 394.900, 360.501 401.500 C 365.647 440.361, 378.122 470.582, 397.944 492.201 L 404.088 498.903 395.909 507.201 C 373.008 530.438, 355.654 561.594, 347.365 594.353 C 345.994 599.772, 345.034 604.367, 345.231 604.564 C 345.429 604.762, 349.620 602.932, 354.545 600.497 C 364.701 595.477, 377.956 591.397, 388.015 590.196 L 394.847 589.380 382.324 602.378 C 345.616 640.481, 323.277 683.691, 312.031 738.350 C 303.203 781.254, 303.595 827.043, 313.109 864.408 C 330.598 933.087, 379.449 994.965, 439.500 1024.502 C 450.117 1029.724, 464.910 1035.142, 472.374 1036.542 C 475.775 1037.180, 475.145 1036.385, 461.146 1022.359 C 431.069 992.223, 413.374 963.692, 402.317 927.500 C 397.549 911.895, 395.902 901.313, 395.314 882.500 C 394.654 861.381, 394.988 858.380, 397.204 865.500 C 412.403 914.333, 446.538 957.522, 496 990.501 C 522.175 1007.954, 549.563 1021.637, 589.031 1036.978 C 617.156 1047.910, 622.661 1050.302, 642.345 1060.148 C 677.169 1077.567, 704.550 1096.562, 727.122 1118.960 C 744.969 1136.668, 755.148 1150.553, 763.947 1169.189 L 768.731 1179.322 771.740 1171.411 C 793.192 1115.026, 794.191 1049.245, 774.400 996.278 C 765.660 972.886, 746.255 939.300, 717.124 897.144 C 698.558 870.277, 693.639 859.390, 693.567 845 C 693.474 826.734, 704.520 813.835, 719.056 815.231 C 725.291 815.830, 728.779 818.242, 731.827 824.059 C 733.815 827.854, 734.078 829.491, 733.630 835.313 L 733.106 842.126 764.803 841.795 C 795.515 841.473, 796.686 841.389, 802.497 839.067 C 810.566 835.844, 817.304 828.811, 822.627 818.061 L 826.753 809.725 828.983 815.612 C 835.059 831.654, 839.666 858.393, 838.844 872.843 L 838.500 878.886 840.891 876.693 C 851.451 867.005, 862.376 847.880, 866.135 832.500 C 870.370 815.175, 868.927 791.533, 862.367 770.769 L 859.846 762.787 861.836 758.143 C 864.224 752.574, 867 742.160, 867 738.769 C 867 736.879, 865.468 735.270, 860.230 731.659 L 853.461 726.991 838.818 730.409 C 823.189 734.057, 794.434 739.311, 792.899 738.800 C 792.391 738.630, 802.380 733.093, 815.097 726.496 C 827.814 719.898, 839.550 713.701, 841.176 712.724 C 844.986 710.436, 847.789 703.970, 852.002 687.750 L 855.314 675 861.126 675 C 865.315 675, 866.829 675.349, 866.549 676.250 C 866.335 676.938, 865.910 685.375, 865.603 695 L 865.045 712.500 870.273 716.697 C 874.331 719.955, 875.768 720.627, 876.696 719.697 C 878.639 717.752, 887.636 699.038, 890.012 692 C 891.453 687.733, 892.209 683.051, 892.215 678.372 C 892.221 672.276, 891.682 670.048, 888.494 662.987 L 884.766 654.730 888.510 644.843 C 891.394 637.227, 892.116 634.105, 891.653 631.251 C 890.773 625.827, 887.960 622.557, 883.869 622.203 C 879.019 621.782, 876.934 624.490, 872.476 637 C 870.418 642.775, 868.521 648.063, 868.260 648.750 C 867.956 649.551, 865.712 650, 862.015 650 L 856.244 650 853.956 643.750 C 848.836 629.765, 843.876 622.137, 839.711 621.844 C 832.552 621.341, 831.445 621.999, 821.973 632.390 L 814.963 640.080 812.994 635.486 C 806.459 620.240, 805.800 611.973, 810.545 604.770 C 816.181 596.213, 826.053 594.430, 845.508 598.453 C 852.653 599.931, 861.425 601.389, 865 601.693 C 871.142 602.216, 882.483 600.667, 883.375 599.183 C 883.736 598.582, 875.305 591.616, 825.802 551.614 C 811.298 539.895, 808.251 534.749, 813 530 C 816.117 526.883, 819.370 527.546, 832.827 534.041 C 839.712 537.364, 845.917 539.862, 846.618 539.593 C 848.088 539.029, 847.502 533.403, 845.442 528.311 C 844.733 526.557, 840.590 520.482, 836.235 514.811 C 831.880 509.140, 825.781 500.855, 822.681 496.401 L 817.045 488.301 818.461 481.401 C 821.976 464.280, 823.015 438.236, 820.942 419.211 C 820.360 413.870, 818.365 401.850, 816.509 392.500 C 814.652 383.150, 812.592 370.775, 811.930 365 C 810.316 350.903, 811.265 329.063, 813.969 318.103 C 815.108 313.485, 815.832 309.498, 815.577 309.244 C 814.106 307.773, 786.561 320.529, 772.861 329.026 C 742.934 347.588, 716.193 376.530, 703.821 403.750 C 702.258 407.188, 700.800 410, 700.580 410 C 700.360 410, 696.164 408.687, 691.255 407.083 C 662.717 397.758, 621.541 396.947, 589.672 405.084 C 585.325 406.194, 581.650 406.966, 581.506 406.801 C 581.362 406.635, 577.615 401.100, 573.181 394.500 C 560.780 376.045, 549.134 362.090, 530.527 343.386 C 497.691 310.383, 468.317 289.024, 427.377 268.385 C 398.385 253.769, 372.863 244.240, 342 236.509 C 326 232.501, 321 231.537, 321 232.459 M 661.597 512.933 C 658.350 514.003, 653.332 516.505, 650.446 518.493 C 641.457 524.684, 637.433 533, 643.425 533 C 644.642 533, 647.953 533.688, 650.784 534.528 C 655.355 535.886, 656.544 536.872, 661.413 543.341 C 668.935 553.336, 674.629 556.508, 685 556.479 C 691.125 556.461, 694.517 555.745, 703.500 552.571 C 712.742 549.306, 716.138 548.610, 724.750 548.212 C 730.388 547.951, 735 547.508, 735 547.227 C 735 546.161, 725.426 535.264, 719.586 529.683 C 712.115 522.543, 704.426 517.354, 696.508 514.111 C 688.089 510.663, 670.308 510.063, 661.597 512.933 M 599.500 586.659 C 571.635 588.908, 550.716 592.781, 530.789 599.377 C 518.029 603.602, 499.822 611.496, 505 610.560 C 510.059 609.645, 536.919 606.995, 551 606.022 C 569.794 604.723, 611.651 604.727, 629.500 606.030 C 685.942 610.149, 745.573 624.758, 785.746 644.309 C 794.570 648.603, 794.227 647.136, 784.274 638.010 C 754.894 611.072, 700.052 591.420, 642 587.027 C 629.478 586.079, 608.892 585.901, 599.500 586.659 M 450.904 642.250 C 429.696 667.856, 421.969 702.508, 428.510 742.673 C 432.812 769.092, 442.076 790.399, 457.824 810.098 C 466.546 821.009, 467.162 821.232, 470.384 814.648 C 474.439 806.359, 484.458 791.938, 485.348 793.108 C 485.512 793.324, 486.383 797.775, 487.284 803 C 490.439 821.291, 497.312 841.467, 505.508 856.500 C 512.498 869.320, 512.171 869.096, 515.499 863.378 C 519.448 856.591, 528.081 845.135, 532.174 841.248 L 535.599 837.996 536.824 846.472 C 541.793 880.840, 560.896 910.508, 590.929 930.502 C 606.037 940.559, 629.178 950.743, 642.855 953.352 C 645.773 953.909, 646.120 953.764, 645.517 952.246 C 630.215 913.738, 627.979 870.767, 639.485 836.349 C 643.502 824.332, 649.537 811.945, 655.668 803.132 C 658.104 799.630, 659.871 796.538, 659.594 796.261 C 659.317 795.984, 656.933 797.006, 654.295 798.533 C 639.487 807.107, 628.385 819.634, 619.943 837.294 C 612.335 853.209, 609.501 870.126, 610.225 895.301 C 610.772 914.320, 611.398 913.392, 602.230 907.140 C 582.458 893.658, 567.669 873.436, 561.268 851.130 C 557.916 839.447, 556.964 813.212, 559.387 799.276 C 565.339 765.045, 583.795 734.471, 613.450 709.719 C 619.282 704.852, 619.332 704.768, 615.950 705.502 C 609.661 706.866, 595.573 713.500, 586.976 719.145 C 560.051 736.825, 545.152 760.707, 537.470 798.500 C 537.246 799.600, 535.089 801.738, 532.677 803.250 C 530.264 804.763, 526.165 808.065, 523.568 810.590 C 520.971 813.114, 518.683 815.017, 518.485 814.818 C 517.628 813.961, 512.934 796.286, 511.432 788.262 C 509.242 776.556, 508.368 740.706, 509.936 726.876 C 512.806 701.558, 519.831 676.121, 529.025 657.757 C 531.840 652.133, 534.617 646.962, 535.194 646.266 C 537.096 643.974, 534.847 644.942, 529.996 648.503 C 504.986 666.862, 486.423 707.593, 484.323 748.721 L 483.699 760.942 477.850 765.537 C 474.633 768.064, 470.823 771.677, 469.382 773.566 C 467.941 775.455, 466.438 777, 466.040 777 C 463.628 777, 454.407 754.500, 450.669 739.491 C 446.187 721.499, 445.502 715.449, 445.574 694.500 C 445.635 676.873, 445.956 673.017, 448.283 662 C 449.735 655.125, 451.816 646.913, 452.907 643.750 C 453.999 640.587, 454.787 638, 454.658 638 C 454.529 638, 452.840 639.913, 450.904 642.250 M 651 645.072 C 621.449 648.320, 591.390 658.245, 567.157 672.757 C 557.593 678.484, 540.578 690.912, 541.305 691.639 C 541.430 691.764, 547.500 689.628, 554.793 686.892 C 590.181 673.617, 632.092 664.682, 672 661.904 C 696.929 660.169, 737.826 662.031, 771.397 666.430 C 776.954 667.158, 781.683 667.589, 781.906 667.388 C 782.130 667.186, 778.080 665.018, 772.906 662.571 C 756.523 654.819, 740.599 650.194, 717.393 646.448 C 705.580 644.541, 663.726 643.674, 651 645.072 M 735.500 689.497 C 709.917 693.147, 685.144 701.360, 667.500 712.039 C 647.300 724.265, 627.242 744.451, 613.385 766.500 L 611.500 769.500 613.684 768 C 614.885 767.175, 622.085 762.174, 629.684 756.886 C 662.743 733.883, 698.056 716.316, 737.694 703.155 C 750.313 698.965, 780.536 691.048, 784.338 690.937 C 786.358 690.877, 786.336 690.805, 784 689.833 C 779.852 688.107, 746.843 687.879, 735.500 689.497" stroke="none" fill="#841424" fill-rule="evenodd"/><path d="M 0 700.001 L 0 1400.002 600.250 1399.751 L 1200.500 1399.500 1200.751 699.750 L 1201.001 0 600.501 0 L 0 0 0 700.001 M 0.497 700.500 C 0.497 1085.500, 0.611 1242.850, 0.750 1050.168 C 0.889 857.485, 0.889 542.485, 0.750 350.168 C 0.611 157.850, 0.497 315.500, 0.497 700.500 M 321 232.459 C 321 232.833, 322.400 235.174, 324.111 237.661 C 331.036 247.727, 341.593 271.106, 347.067 288.500 C 354.257 311.350, 356.816 328.696, 357.981 362.500 C 358.493 377.350, 359.627 394.900, 360.501 401.500 C 365.647 440.361, 378.122 470.582, 397.944 492.201 L 404.088 498.903 395.909 507.201 C 373.008 530.438, 355.654 561.594, 347.365 594.353 C 345.994 599.772, 345.034 604.367, 345.231 604.564 C 345.429 604.762, 349.620 602.932, 354.545 600.497 C 364.701 595.477, 377.956 591.397, 388.015 590.196 L 394.847 589.380 382.324 602.378 C 345.616 640.481, 323.277 683.691, 312.031 738.350 C 303.203 781.254, 303.595 827.043, 313.109 864.408 C 330.598 933.087, 379.449 994.965, 439.500 1024.502 C 450.117 1029.724, 464.910 1035.142, 472.374 1036.542 C 475.775 1037.180, 475.145 1036.385, 461.146 1022.359 C 431.069 992.223, 413.374 963.692, 402.317 927.500 C 397.549 911.895, 395.902 901.313, 395.314 882.500 C 394.654 861.381, 394.988 858.380, 397.204 865.500 C 412.403 914.333, 446.538 957.522, 496 990.501 C 522.175 1007.954, 549.563 1021.637, 589.031 1036.978 C 617.156 1047.910, 622.661 1050.302, 642.345 1060.148 C 677.169 1077.567, 704.550 1096.562, 727.122 1118.960 C 744.969 1136.668, 755.148 1150.553, 763.947 1169.189 L 768.731 1179.322 771.740 1171.411 C 793.192 1115.026, 794.191 1049.245, 774.400 996.278 C 765.660 972.886, 746.255 939.300, 717.124 897.144 C 698.558 870.277, 693.639 859.390, 693.567 845 C 693.474 826.734, 704.520 813.835, 719.056 815.231 C 725.291 815.830, 728.779 818.242, 731.827 824.059 C 733.815 827.854, 734.078 829.491, 733.630 835.313 L 733.106 842.126 764.803 841.795 C 795.515 841.473, 796.686 841.389, 802.497 839.067 C 810.566 835.844, 817.304 828.811, 822.627 818.061 L 826.753 809.725 828.983 815.612 C 835.059 831.654, 839.666 858.393, 838.844 872.843 L 838.500 878.886 840.891 876.693 C 851.451 867.005, 862.376 847.880, 866.135 832.500 C 870.370 815.175, 868.927 791.533, 862.367 770.769 L 859.846 762.787 861.836 758.143 C 864.224 752.574, 867 742.160, 867 738.769 C 867 736.879, 865.468 735.270, 860.230 731.659 L 853.461 726.991 838.818 730.409 C 823.189 734.057, 794.434 739.311, 792.899 738.800 C 792.391 738.630, 802.380 733.093, 815.097 726.496 C 827.814 719.898, 839.550 713.701, 841.176 712.724 C 844.986 710.436, 847.789 703.970, 852.002 687.750 L 855.314 675 861.126 675 C 865.315 675, 866.829 675.349, 866.549 676.250 C 866.335 676.938, 865.910 685.375, 865.603 695 L 865.045 712.500 870.273 716.697 C 874.331 719.955, 875.768 720.627, 876.696 719.697 C 878.639 717.752, 887.636 699.038, 890.012 692 C 891.453 687.733, 892.209 683.051, 892.215 678.372 C 892.221 672.276, 891.682 670.048, 888.494 662.987 L 884.766 654.730 888.510 644.843 C 891.394 637.227, 892.116 634.105, 891.653 631.251 C 890.773 625.827, 887.960 622.557, 883.869 622.203 C 879.019 621.782, 876.934 624.490, 872.476 637 C 870.418 642.775, 868.521 648.063, 868.260 648.750 C 867.956 649.551, 865.712 650, 862.015 650 L 856.244 650 853.956 643.750 C 848.836 629.765, 843.876 622.137, 839.711 621.844 C 832.552 621.341, 831.445 621.999, 821.973 632.390 L 814.963 640.080 812.994 635.486 C 806.459 620.240, 805.800 611.973, 810.545 604.770 C 816.181 596.213, 826.053 594.430, 845.508 598.453 C 852.653 599.931, 861.425 601.389, 865 601.693 C 871.142 602.216, 882.483 600.667, 883.375 599.183 C 883.736 598.582, 875.305 591.616, 825.802 551.614 C 811.298 539.895, 808.251 534.749, 813 530 C 816.117 526.883, 819.370 527.546, 832.827 534.041 C 839.712 537.364, 845.917 539.862, 846.618 539.593 C 848.088 539.029, 847.502 533.403, 845.442 528.311 C 844.733 526.557, 840.590 520.482, 836.235 514.811 C 831.880 509.140, 825.781 500.855, 822.681 496.401 L 817.045 488.301 818.461 481.401 C 821.976 464.280, 823.015 438.236, 820.942 419.211 C 820.360 413.870, 818.365 401.850, 816.509 392.500 C 814.652 383.150, 812.592 370.775, 811.930 365 C 810.316 350.903, 811.265 329.063, 813.969 318.103 C 815.108 313.485, 815.832 309.498, 815.577 309.244 C 814.106 307.773, 786.561 320.529, 772.861 329.026 C 742.934 347.588, 716.193 376.530, 703.821 403.750 C 702.258 407.188, 700.800 410, 700.580 410 C 700.360 410, 696.164 408.687, 691.255 407.083 C 662.717 397.758, 621.541 396.947, 589.672 405.084 C 585.325 406.194, 581.650 406.966, 581.506 406.801 C 581.362 406.635, 577.615 401.100, 573.181 394.500 C 560.780 376.045, 549.134 362.090, 530.527 343.386 C 497.691 310.383, 468.317 289.024, 427.377 268.385 C 398.385 253.769, 372.863 244.240, 342 236.509 C 326 232.501, 321 231.537, 321 232.459 M 661.597 512.933 C 658.350 514.003, 653.332 516.505, 650.446 518.493 C 641.457 524.684, 637.433 533, 643.425 533 C 644.642 533, 647.953 533.688, 650.784 534.528 C 655.355 535.886, 656.544 536.872, 661.413 543.341 C 668.935 553.336, 674.629 556.508, 685 556.479 C 691.125 556.461, 694.517 555.745, 703.500 552.571 C 712.742 549.306, 716.138 548.610, 724.750 548.212 C 730.388 547.951, 735 547.508, 735 547.227 C 735 546.161, 725.426 535.264, 719.586 529.683 C 712.115 522.543, 704.426 517.354, 696.508 514.111 C 688.089 510.663, 670.308 510.063, 661.597 512.933 M 599.500 586.659 C 571.635 588.908, 550.716 592.781, 530.789 599.377 C 518.029 603.602, 499.822 611.496, 505 610.560 C 510.059 609.645, 536.919 606.995, 551 606.022 C 569.794 604.723, 611.651 604.727, 629.500 606.030 C 685.942 610.149, 745.573 624.758, 785.746 644.309 C 794.570 648.603, 794.227 647.136, 784.274 638.010 C 754.894 611.072, 700.052 591.420, 642 587.027 C 629.478 586.079, 608.892 585.901, 599.500 586.659 M 450.904 642.250 C 429.696 667.856, 421.969 702.508, 428.510 742.673 C 432.812 769.092, 442.076 790.399, 457.824 810.098 C 466.546 821.009, 467.162 821.232, 470.384 814.648 C 474.439 806.359, 484.458 791.938, 485.348 793.108 C 485.512 793.324, 486.383 797.775, 487.284 803 C 490.439 821.291, 497.312 841.467, 505.508 856.500 C 512.498 869.320, 512.171 869.096, 515.499 863.378 C 519.448 856.591, 528.081 845.135, 532.174 841.248 L 535.599 837.996 536.824 846.472 C 541.793 880.840, 560.896 910.508, 590.929 930.502 C 606.037 940.559, 629.178 950.743, 642.855 953.352 C 645.773 953.909, 646.120 953.764, 645.517 952.246 C 630.215 913.738, 627.979 870.767, 639.485 836.349 C 643.502 824.332, 649.537 811.945, 655.668 803.132 C 658.104 799.630, 659.871 796.538, 659.594 796.261 C 659.317 795.984, 656.933 797.006, 654.295 798.533 C 639.487 807.107, 628.385 819.634, 619.943 837.294 C 612.335 853.209, 609.501 870.126, 610.225 895.301 C 610.772 914.320, 611.398 913.392, 602.230 907.140 C 582.458 893.658, 567.669 873.436, 561.268 851.130 C 557.916 839.447, 556.964 813.212, 559.387 799.276 C 565.339 765.045, 583.795 734.471, 613.450 709.719 C 619.282 704.852, 619.332 704.768, 615.950 705.502 C 609.661 706.866, 595.573 713.500, 586.976 719.145 C 560.051 736.825, 545.152 760.707, 537.470 798.500 C 537.246 799.600, 535.089 801.738, 532.677 803.250 C 530.264 804.763, 526.165 808.065, 523.568 810.590 C 520.971 813.114, 518.683 815.017, 518.485 814.818 C 517.628 813.961, 512.934 796.286, 511.432 788.262 C 509.242 776.556, 508.368 740.706, 509.936 726.876 C 512.806 701.558, 519.831 676.121, 529.025 657.757 C 531.840 652.133, 534.617 646.962, 535.194 646.266 C 537.096 643.974, 534.847 644.942, 529.996 648.503 C 504.986 666.862, 486.423 707.593, 484.323 748.721 L 483.699 760.942 477.850 765.537 C 474.633 768.064, 470.823 771.677, 469.382 773.566 C 467.941 775.455, 466.438 777, 466.040 777 C 463.628 777, 454.407 754.500, 450.669 739.491 C 446.187 721.499, 445.502 715.449, 445.574 694.500 C 445.635 676.873, 445.956 673.017, 448.283 662 C 449.735 655.125, 451.816 646.913, 452.907 643.750 C 453.999 640.587, 454.787 638, 454.658 638 C 454.529 638, 452.840 639.913, 450.904 642.250 M 651 645.072 C 621.449 648.320, 591.390 658.245, 567.157 672.757 C 557.593 678.484, 540.578 690.912, 541.305 691.639 C 541.430 691.764, 547.500 689.628, 554.793 686.892 C 590.181 673.617, 632.092 664.682, 672 661.904 C 696.929 660.169, 737.826 662.031, 771.397 666.430 C 776.954 667.158, 781.683 667.589, 781.906 667.388 C 782.130 667.186, 778.080 665.018, 772.906 662.571 C 756.523 654.819, 740.599 650.194, 717.393 646.448 C 705.580 644.541, 663.726 643.674, 651 645.072 M 735.500 689.497 C 709.917 693.147, 685.144 701.360, 667.500 712.039 C 647.300 724.265, 627.242 744.451, 613.385 766.500 L 611.500 769.500 613.684 768 C 614.885 767.175, 622.085 762.174, 629.684 756.886 C 662.743 733.883, 698.056 716.316, 737.694 703.155 C 750.313 698.965, 780.536 691.048, 784.338 690.937 C 786.358 690.877, 786.336 690.805, 784 689.833 C 779.852 688.107, 746.843 687.879, 735.500 689.497" stroke="none" fill="#fbfbfb" fill-rule="evenodd"/></svg>