<?xml version="1.0" encoding="utf-8"?>
<svg width="694" height="694" viewBox="0 0 694 694" version="1.1" xmlns="http://www.w3.org/2000/svg">
  <defs/>
  <path d="M 319 46.614 C 303.136 48.466, 296.643 49.464, 284 51.994 C 229.436 62.916, 177.362 90.991, 136.579 131.475 C 57.225 210.245, 29.358 326.624, 64.497 432.500 C 93.929 521.183, 162.938 590.213, 251.500 619.562 C 299.708 635.538, 347.899 638.780, 398.582 629.457 C 475.937 615.228, 545.979 568.363, 589.992 501.385 C 613.392 465.776, 628.589 426.227, 635.100 384 C 637.770 366.684, 638.752 331.301, 637.061 313.322 C 628.427 221.486, 578.522 140.601, 499.500 90.364 C 474.907 74.730, 446.730 62.724, 416.407 54.959 C 391.496 48.580, 377.339 46.828, 348 46.495 C 333.975 46.335, 320.925 46.389, 319 46.614 M 326.500 72.586 C 293.113 75.909, 270.060 81.219, 244.589 91.453 C 209.545 105.533, 182.140 123.725, 154.973 150.944 C 138.711 167.235, 128.259 180.106, 117.464 197.132 C 69.907 272.139, 62.771 366.561, 98.544 447.500 C 106.916 466.444, 118.163 485.772, 129.467 500.642 L 132.615 504.783 133.852 483.284 C 136.490 437.405, 142.359 401.810, 154.196 359.887 C 158.896 343.242, 159.386 340.552, 159.369 331.500 C 159.352 322.757, 158.941 320.368, 156.099 312.500 C 154.311 307.550, 149.066 295.850, 144.444 286.500 C 133.763 264.893, 131.496 256.829, 131.511 240.500 C 131.524 227.501, 132.991 221.211, 137.811 213.500 C 144.805 202.310, 152.197 196.285, 163.091 192.895 C 173.021 189.804, 180.443 190.352, 197.584 195.441 C 223.050 203.003, 227.956 203.110, 236.676 196.297 C 250.644 185.385, 267.071 177.803, 283 174.916 C 292.616 173.174, 316.370 173.343, 322.500 175.198 C 325.250 176.031, 331.325 177.753, 336 179.026 L 344.500 181.341 354 178.523 C 371.214 173.417, 377.828 172.624, 393 173.846 C 414.815 175.602, 426.237 179.594, 444.321 191.778 C 450.470 195.920, 457.142 199.897, 459.150 200.615 C 463.937 202.328, 470.041 201.315, 489.916 195.506 C 506.122 190.769, 513.062 190.026, 521.958 192.076 C 542.403 196.788, 557 216.989, 557 240.573 C 557 247.655, 554.423 260.709, 551.334 269.273 C 549.930 273.163, 545.542 282.681, 541.583 290.423 C 532.312 308.551, 530.536 314.154, 530.619 325 C 530.697 335.154, 531.351 337.654, 539.516 359 C 542.987 368.075, 547.458 382.250, 549.451 390.500 C 551.445 398.750, 553.621 407.605, 554.288 410.178 C 555.474 414.756, 555.883 415.126, 573.338 427.428 C 583.148 434.343, 591.539 440, 591.984 440 C 593.271 440, 600.569 418.448, 603.988 404.548 C 624.057 322.970, 605.340 238.680, 552.351 172 C 543.667 161.072, 522.905 140.313, 512 131.655 C 473.348 100.966, 430.268 82.179, 382 74.963 C 369.124 73.038, 336.149 71.626, 326.500 72.586 M 289.388 192.986 C 275.417 194.958, 267.183 198.491, 251 209.457 C 237.260 218.767, 233.847 220.108, 223.928 220.097 C 215.113 220.087, 211.142 219.285, 193.437 213.942 C 174.125 208.114, 166.747 208.740, 159.144 216.852 C 152.586 223.850, 150.727 228.187, 150.204 237.705 C 149.532 249.951, 152.602 261.100, 161.298 277.990 C 170.418 295.706, 174.281 306.011, 177.014 319.919 C 179.909 334.652, 179.514 338.556, 172.563 363.950 C 159.013 413.448, 153.375 451.608, 152.315 501 L 151.746 527.500 162.623 537.216 C 177.005 550.064, 189.559 559.611, 203.265 568.124 C 261.222 604.125, 330.955 616.338, 398.959 602.399 C 439.245 594.141, 483.878 572.448, 515.500 545.757 C 541.103 524.146, 566.702 492.735, 580.117 466.468 L 583.500 459.845 579.575 456.415 C 577.416 454.528, 568.416 447.352, 559.575 440.468 C 550.734 433.583, 542.022 426.724, 540.215 425.225 C 537.153 422.686, 536.723 421.524, 533.902 408.191 C 529.394 386.885, 524.589 370.234, 518.573 355.067 C 511.624 337.550, 510.709 334.055, 510.699 325 C 510.687 313.472, 516.573 295.483, 525.423 280 C 537.121 259.536, 540.906 238.596, 535.223 225.782 C 532.547 219.748, 525.380 212.719, 520.384 211.228 C 513.846 209.277, 508.492 209.760, 496.090 213.420 C 476.702 219.142, 472.182 220.087, 464.186 220.097 C 454.328 220.108, 450.115 218.555, 438.737 210.714 C 421.387 198.758, 412.004 194.778, 396.746 192.905 C 383.301 191.254, 374.581 192.188, 359.297 196.916 C 352.035 199.162, 345.152 201, 344 201 C 342.848 201, 335.965 199.160, 328.703 196.911 C 317.808 193.538, 313.752 192.762, 305.500 192.473 C 300 192.280, 292.750 192.511, 289.388 192.986 M 171.544 230.344 C 168.988 232.213, 169.903 235.059, 176.068 244.409 C 178.883 248.679, 182.303 254.697, 183.668 257.783 L 186.149 263.393 188.216 259.947 C 189.354 258.051, 191.795 254.144, 193.642 251.265 C 195.489 248.386, 197 245.384, 197 244.593 C 197 242.473, 187.589 234.613, 181.455 231.610 C 175.374 228.632, 174.107 228.470, 171.544 230.344 M 506.216 231.580 C 500.525 234.416, 491 242.462, 491 244.433 C 491 245.988, 500.192 261.389, 501.367 261.802 C 501.840 261.969, 503.325 259.719, 504.668 256.802 C 506.012 253.886, 509.291 248.125, 511.956 244 C 517.869 234.847, 518.583 232.725, 516.463 230.605 C 514.248 228.391, 512.229 228.583, 506.216 231.580 M 268.344 273.099 C 258.330 274.941, 251.688 281.079, 252.228 287.993 C 252.634 293.206, 255.815 294.329, 271.500 294.795 C 285.542 295.212, 290 294.329, 290 291.130 C 290 289.226, 289.418 288.582, 281.293 281.508 C 278.979 279.493, 276.811 276.979, 276.475 275.921 C 275.584 273.114, 273.049 272.234, 268.344 273.099 M 413.667 273.381 C 412.921 273.997, 411.310 275.961, 410.089 277.748 C 408.867 279.534, 405.876 282.365, 403.442 284.040 C 398.233 287.623, 396.682 291.543, 399.603 293.736 C 402.232 295.710, 428.130 295.095, 432.500 292.955 C 438.348 290.090, 436.143 280.926, 428.532 276.466 C 423.313 273.408, 415.581 271.803, 413.667 273.381 M 304.864 304.072 C 299.433 312.402, 281.621 351.206, 276.729 365.364 C 273.914 373.510, 273.568 375.746, 273.536 386 C 273.497 398.362, 273.875 399.590, 282.469 415.042 C 283.858 417.540, 286.059 423.245, 287.360 427.720 C 290.272 437.736, 293.690 443.715, 299.243 448.503 C 307.153 455.325, 315.411 458.083, 323.424 456.580 C 328.149 455.694, 327.939 454.597, 322.750 453.047 C 312.777 450.067, 304.897 444.113, 301.289 436.830 C 300.110 434.448, 298.694 429.200, 298.143 425.166 C 297.383 419.608, 295.731 414.887, 291.320 405.666 L 285.500 393.500 285.553 381.500 L 285.605 369.500 292.737 349.822 C 301.242 326.355, 307.242 306.703, 306.812 303.722 C 306.507 301.610, 306.464 301.618, 304.864 304.072 M 381.331 305.671 C 382.188 311.026, 386.624 325.152, 393.527 344.500 C 402.231 368.899, 403.182 372.958, 402.788 384.011 C 402.460 393.206, 402.260 393.919, 396.754 405.511 C 392.554 414.354, 390.770 419.468, 389.952 425 C 388.566 434.387, 386.016 439.849, 380.837 444.528 C 376.635 448.324, 365.800 453.998, 362.750 453.999 C 360.240 454, 360.590 455.657, 363.250 456.370 C 371.841 458.672, 383.488 454.534, 390.826 446.573 C 395.778 441.200, 398.121 436.700, 400.988 427.056 C 402.205 422.962, 405.743 414.729, 408.850 408.761 C 414.356 398.186, 414.509 397.675, 414.838 388.691 C 415.385 373.799, 410.760 359.947, 393.036 323.398 C 382.954 302.608, 380.166 298.385, 381.331 305.671 M 322.500 357.496 C 317.749 359.169, 313.967 363.323, 309.751 371.500 C 305.935 378.901, 305.653 387.217, 308.904 396.468 C 312.946 407.966, 318.987 412.696, 330.908 413.696 L 338 414.290 338 420.187 L 338 426.083 330.616 425.414 C 321.920 424.626, 314.713 426.059, 310.508 429.412 L 307.611 431.722 309.812 432.899 C 312.393 434.281, 378.285 434.056, 379.668 432.660 C 381.031 431.285, 374.962 427.190, 369.682 425.924 C 366.629 425.191, 361.973 424.998, 357.384 425.414 L 350 426.083 350 420.263 L 350 414.443 357.019 413.338 C 368.959 411.457, 374.600 405.678, 377.584 392.268 C 379.548 383.439, 379.143 379.298, 375.531 371.248 C 372.270 363.981, 366.891 358.556, 361.500 357.095 C 355.531 355.478, 327.411 355.767, 322.500 357.496 M 488.518 374.250 C 488.233 375.488, 487.081 382.350, 485.960 389.500 C 482.449 411.885, 479.653 421.608, 472.733 435.500 C 463.998 453.037, 450.711 468.149, 437.566 475.500 C 433.898 477.552, 430.722 479.055, 430.508 478.842 C 430.295 478.628, 431.427 476.507, 433.025 474.129 C 437.992 466.734, 440.301 459.370, 440.406 450.595 C 440.519 441.122, 439.280 440.037, 435.370 446.186 C 424.686 462.990, 420.834 468.282, 415.038 474.121 C 403.797 485.444, 384.350 496.740, 367.250 501.879 C 363.262 503.077, 360 504.329, 360 504.662 C 360 504.994, 368.212 505.015, 378.250 504.709 C 405.319 503.884, 423.153 499.430, 445.507 487.912 C 457.108 481.935, 461.593 480.776, 462.634 483.487 C 464.958 489.544, 446.460 513.534, 424.123 533.432 C 417.417 539.405, 412.103 544.789, 412.314 545.396 C 413.342 548.352, 427.529 543.391, 441.053 535.346 C 450.851 529.518, 463.944 519.069, 470.432 511.900 C 485.609 495.131, 502.786 467.460, 508.546 450.500 C 510.599 444.455, 511.749 431, 510.213 431 C 509.636 431, 508.140 432.656, 506.889 434.679 C 502.915 441.110, 495.343 449.578, 490.174 453.372 C 485.198 457.025, 479.352 459.685, 478.398 458.731 C 478.123 458.456, 479.229 456.131, 480.857 453.565 C 491.049 437.493, 497.280 409.123, 495.012 389.107 C 493.549 376.187, 489.965 367.988, 488.518 374.250 M 205 423.106 C 205 428.945, 208.081 438.497, 213.547 449.604 C 224.034 470.913, 239.336 484.788, 262.644 494.121 C 279.184 500.744, 305.204 505.562, 320.500 504.833 L 327.500 504.500 314.782 498.334 C 285.392 484.085, 266.719 468.293, 260.918 452.780 C 259.350 448.588, 258.245 447, 256.897 447 C 254.816 447, 254.408 448.339, 253.558 457.956 C 253.244 461.507, 252.555 464.845, 252.026 465.374 C 250.371 467.029, 243.889 464.314, 236.882 459.029 C 228.558 452.752, 216.617 438.436, 211 428 C 208.632 423.600, 206.313 420, 205.847 420 C 205.381 420, 205 421.398, 205 423.106 M 473.458 613.067 C 473.095 613.655, 473.743 614.381, 474.899 614.684 C 476.631 615.137, 477 616.004, 477 619.617 C 477 622.846, 477.395 624, 478.500 624 C 479.611 624, 480 622.833, 480 619.500 C 480 616.167, 480.389 615, 481.500 615 C 482.325 615, 483 614.325, 483 613.500 C 483 612.392, 481.840 612, 478.559 612 C 476.116 612, 473.821 612.480, 473.458 613.067 M 484 618 C 484 622.667, 484.333 624, 485.500 624 C 486.544 624, 487.038 622.861, 487.126 620.250 L 487.253 616.500 488.312 620.288 C 489.625 624.982, 491.832 624.861, 493.585 620 L 494.848 616.500 494.924 620.250 C 494.978 622.938, 495.439 624, 496.550 624 C 497.805 624, 498.043 622.906, 497.800 618.250 C 497.537 613.203, 497.232 612.462, 495.307 612.188 C 493.497 611.930, 492.997 612.498, 492.446 615.438 C 491.596 619.965, 490.408 619.991, 489.566 615.500 C 489.027 612.629, 488.468 612, 486.455 612 C 484.121 612, 484 612.296, 484 618" stroke="none" fill="#1d1d1d" fill-rule="evenodd"/>
  <path d="M 0 347.001 L 0 694.003 347.250 693.751 L 694.500 693.500 694.751 346.750 L 695.003 -0 347.501 -0 L 0 0 0 347.001 M 0.494 347.500 C 0.494 538.350, 0.609 616.276, 0.750 520.669 C 0.891 425.062, 0.891 268.912, 0.750 173.669 C 0.609 78.426, 0.494 156.650, 0.494 347.500 M 319 46.614 C 303.136 48.466, 296.643 49.464, 284 51.994 C 229.436 62.916, 177.362 90.991, 136.579 131.475 C 57.225 210.245, 29.358 326.624, 64.497 432.500 C 93.929 521.183, 162.938 590.213, 251.500 619.562 C 299.708 635.538, 347.899 638.780, 398.582 629.457 C 475.937 615.228, 545.979 568.363, 589.992 501.385 C 613.392 465.776, 628.589 426.227, 635.100 384 C 637.770 366.684, 638.752 331.301, 637.061 313.322 C 628.427 221.486, 578.522 140.601, 499.500 90.364 C 474.907 74.730, 446.730 62.724, 416.407 54.959 C 391.496 48.580, 377.339 46.828, 348 46.495 C 333.975 46.335, 320.925 46.389, 319 46.614 M 326.500 72.586 C 293.113 75.909, 270.060 81.219, 244.589 91.453 C 209.545 105.533, 182.140 123.725, 154.973 150.944 C 138.711 167.235, 128.259 180.106, 117.464 197.132 C 69.907 272.139, 62.771 366.561, 98.544 447.500 C 106.916 466.444, 118.163 485.772, 129.467 500.642 L 132.615 504.783 133.852 483.284 C 136.490 437.405, 142.359 401.810, 154.196 359.887 C 158.896 343.242, 159.386 340.552, 159.369 331.500 C 159.352 322.757, 158.941 320.368, 156.099 312.500 C 154.311 307.550, 149.066 295.850, 144.444 286.500 C 133.763 264.893, 131.496 256.829, 131.511 240.500 C 131.524 227.501, 132.991 221.211, 137.811 213.500 C 144.805 202.310, 152.197 196.285, 163.091 192.895 C 173.021 189.804, 180.443 190.352, 197.584 195.441 C 223.050 203.003, 227.956 203.110, 236.676 196.297 C 250.644 185.385, 267.071 177.803, 283 174.916 C 292.616 173.174, 316.370 173.343, 322.500 175.198 C 325.250 176.031, 331.325 177.753, 336 179.026 L 344.500 181.341 354 178.523 C 371.214 173.417, 377.828 172.624, 393 173.846 C 414.815 175.602, 426.237 179.594, 444.321 191.778 C 450.470 195.920, 457.142 199.897, 459.150 200.615 C 463.937 202.328, 470.041 201.315, 489.916 195.506 C 506.122 190.769, 513.062 190.026, 521.958 192.076 C 542.403 196.788, 557 216.989, 557 240.573 C 557 247.655, 554.423 260.709, 551.334 269.273 C 549.930 273.163, 545.542 282.681, 541.583 290.423 C 532.312 308.551, 530.536 314.154, 530.619 325 C 530.697 335.154, 531.351 337.654, 539.516 359 C 542.987 368.075, 547.458 382.250, 549.451 390.500 C 551.445 398.750, 553.621 407.605, 554.288 410.178 C 555.474 414.756, 555.883 415.126, 573.338 427.428 C 583.148 434.343, 591.539 440, 591.984 440 C 593.271 440, 600.569 418.448, 603.988 404.548 C 624.057 322.970, 605.340 238.680, 552.351 172 C 543.667 161.072, 522.905 140.313, 512 131.655 C 473.348 100.966, 430.268 82.179, 382 74.963 C 369.124 73.038, 336.149 71.626, 326.500 72.586 M 289.388 192.986 C 275.417 194.958, 267.183 198.491, 251 209.457 C 237.260 218.767, 233.847 220.108, 223.928 220.097 C 215.113 220.087, 211.142 219.285, 193.437 213.942 C 174.125 208.114, 166.747 208.740, 159.144 216.852 C 152.586 223.850, 150.727 228.187, 150.204 237.705 C 149.532 249.951, 152.602 261.100, 161.298 277.990 C 170.418 295.706, 174.281 306.011, 177.014 319.919 C 179.909 334.652, 179.514 338.556, 172.563 363.950 C 159.013 413.448, 153.375 451.608, 152.315 501 L 151.746 527.500 162.623 537.216 C 177.005 550.064, 189.559 559.611, 203.265 568.124 C 261.222 604.125, 330.955 616.338, 398.959 602.399 C 439.245 594.141, 483.878 572.448, 515.500 545.757 C 541.103 524.146, 566.702 492.735, 580.117 466.468 L 583.500 459.845 579.575 456.415 C 577.416 454.528, 568.416 447.352, 559.575 440.468 C 550.734 433.583, 542.022 426.724, 540.215 425.225 C 537.153 422.686, 536.723 421.524, 533.902 408.191 C 529.394 386.885, 524.589 370.234, 518.573 355.067 C 511.624 337.550, 510.709 334.055, 510.699 325 C 510.687 313.472, 516.573 295.483, 525.423 280 C 537.121 259.536, 540.906 238.596, 535.223 225.782 C 532.547 219.748, 525.380 212.719, 520.384 211.228 C 513.846 209.277, 508.492 209.760, 496.090 213.420 C 476.702 219.142, 472.182 220.087, 464.186 220.097 C 454.328 220.108, 450.115 218.555, 438.737 210.714 C 421.387 198.758, 412.004 194.778, 396.746 192.905 C 383.301 191.254, 374.581 192.188, 359.297 196.916 C 352.035 199.162, 345.152 201, 344 201 C 342.848 201, 335.965 199.160, 328.703 196.911 C 317.808 193.538, 313.752 192.762, 305.500 192.473 C 300 192.280, 292.750 192.511, 289.388 192.986 M 171.544 230.344 C 168.988 232.213, 169.903 235.059, 176.068 244.409 C 178.883 248.679, 182.303 254.697, 183.668 257.783 L 186.149 263.393 188.216 259.947 C 189.354 258.051, 191.795 254.144, 193.642 251.265 C 195.489 248.386, 197 245.384, 197 244.593 C 197 242.473, 187.589 234.613, 181.455 231.610 C 175.374 228.632, 174.107 228.470, 171.544 230.344 M 506.216 231.580 C 500.525 234.416, 491 242.462, 491 244.433 C 491 245.988, 500.192 261.389, 501.367 261.802 C 501.840 261.969, 503.325 259.719, 504.668 256.802 C 506.012 253.886, 509.291 248.125, 511.956 244 C 517.869 234.847, 518.583 232.725, 516.463 230.605 C 514.248 228.391, 512.229 228.583, 506.216 231.580 M 268.344 273.099 C 258.330 274.941, 251.688 281.079, 252.228 287.993 C 252.634 293.206, 255.815 294.329, 271.500 294.795 C 285.542 295.212, 290 294.329, 290 291.130 C 290 289.226, 289.418 288.582, 281.293 281.508 C 278.979 279.493, 276.811 276.979, 276.475 275.921 C 275.584 273.114, 273.049 272.234, 268.344 273.099 M 413.667 273.381 C 412.921 273.997, 411.310 275.961, 410.089 277.748 C 408.867 279.534, 405.876 282.365, 403.442 284.040 C 398.233 287.623, 396.682 291.543, 399.603 293.736 C 402.232 295.710, 428.130 295.095, 432.500 292.955 C 438.348 290.090, 436.143 280.926, 428.532 276.466 C 423.313 273.408, 415.581 271.803, 413.667 273.381 M 304.864 304.072 C 299.433 312.402, 281.621 351.206, 276.729 365.364 C 273.914 373.510, 273.568 375.746, 273.536 386 C 273.497 398.362, 273.875 399.590, 282.469 415.042 C 283.858 417.540, 286.059 423.245, 287.360 427.720 C 290.272 437.736, 293.690 443.715, 299.243 448.503 C 307.153 455.325, 315.411 458.083, 323.424 456.580 C 328.149 455.694, 327.939 454.597, 322.750 453.047 C 312.777 450.067, 304.897 444.113, 301.289 436.830 C 300.110 434.448, 298.694 429.200, 298.143 425.166 C 297.383 419.608, 295.731 414.887, 291.320 405.666 L 285.500 393.500 285.553 381.500 L 285.605 369.500 292.737 349.822 C 301.242 326.355, 307.242 306.703, 306.812 303.722 C 306.507 301.610, 306.464 301.618, 304.864 304.072 M 381.331 305.671 C 382.188 311.026, 386.624 325.152, 393.527 344.500 C 402.231 368.899, 403.182 372.958, 402.788 384.011 C 402.460 393.206, 402.260 393.919, 396.754 405.511 C 392.554 414.354, 390.770 419.468, 389.952 425 C 388.566 434.387, 386.016 439.849, 380.837 444.528 C 376.635 448.324, 365.800 453.998, 362.750 453.999 C 360.240 454, 360.590 455.657, 363.250 456.370 C 371.841 458.672, 383.488 454.534, 390.826 446.573 C 395.778 441.200, 398.121 436.700, 400.988 427.056 C 402.205 422.962, 405.743 414.729, 408.850 408.761 C 414.356 398.186, 414.509 397.675, 414.838 388.691 C 415.385 373.799, 410.760 359.947, 393.036 323.398 C 382.954 302.608, 380.166 298.385, 381.331 305.671 M 322.500 357.496 C 317.749 359.169, 313.967 363.323, 309.751 371.500 C 305.935 378.901, 305.653 387.217, 308.904 396.468 C 312.946 407.966, 318.987 412.696, 330.908 413.696 L 338 414.290 338 420.187 L 338 426.083 330.616 425.414 C 321.920 424.626, 314.713 426.059, 310.508 429.412 L 307.611 431.722 309.812 432.899 C 312.393 434.281, 378.285 434.056, 379.668 432.660 C 381.031 431.285, 374.962 427.190, 369.682 425.924 C 366.629 425.191, 361.973 424.998, 357.384 425.414 L 350 426.083 350 420.263 L 350 414.443 357.019 413.338 C 368.959 411.457, 374.600 405.678, 377.584 392.268 C 379.548 383.439, 379.143 379.298, 375.531 371.248 C 372.270 363.981, 366.891 358.556, 361.500 357.095 C 355.531 355.478, 327.411 355.767, 322.500 357.496 M 488.518 374.250 C 488.233 375.488, 487.081 382.350, 485.960 389.500 C 482.449 411.885, 479.653 421.608, 472.733 435.500 C 463.998 453.037, 450.711 468.149, 437.566 475.500 C 433.898 477.552, 430.722 479.055, 430.508 478.842 C 430.295 478.628, 431.427 476.507, 433.025 474.129 C 437.992 466.734, 440.301 459.370, 440.406 450.595 C 440.519 441.122, 439.280 440.037, 435.370 446.186 C 424.686 462.990, 420.834 468.282, 415.038 474.121 C 403.797 485.444, 384.350 496.740, 367.250 501.879 C 363.262 503.077, 360 504.329, 360 504.662 C 360 504.994, 368.212 505.015, 378.250 504.709 C 405.319 503.884, 423.153 499.430, 445.507 487.912 C 457.108 481.935, 461.593 480.776, 462.634 483.487 C 464.958 489.544, 446.460 513.534, 424.123 533.432 C 417.417 539.405, 412.103 544.789, 412.314 545.396 C 413.342 548.352, 427.529 543.391, 441.053 535.346 C 450.851 529.518, 463.944 519.069, 470.432 511.900 C 485.609 495.131, 502.786 467.460, 508.546 450.500 C 510.599 444.455, 511.749 431, 510.213 431 C 509.636 431, 508.140 432.656, 506.889 434.679 C 502.915 441.110, 495.343 449.578, 490.174 453.372 C 485.198 457.025, 479.352 459.685, 478.398 458.731 C 478.123 458.456, 479.229 456.131, 480.857 453.565 C 491.049 437.493, 497.280 409.123, 495.012 389.107 C 493.549 376.187, 489.965 367.988, 488.518 374.250 M 205 423.106 C 205 428.945, 208.081 438.497, 213.547 449.604 C 224.034 470.913, 239.336 484.788, 262.644 494.121 C 279.184 500.744, 305.204 505.562, 320.500 504.833 L 327.500 504.500 314.782 498.334 C 285.392 484.085, 266.719 468.293, 260.918 452.780 C 259.350 448.588, 258.245 447, 256.897 447 C 254.816 447, 254.408 448.339, 253.558 457.956 C 253.244 461.507, 252.555 464.845, 252.026 465.374 C 250.371 467.029, 243.889 464.314, 236.882 459.029 C 228.558 452.752, 216.617 438.436, 211 428 C 208.632 423.600, 206.313 420, 205.847 420 C 205.381 420, 205 421.398, 205 423.106 M 473.458 613.067 C 473.095 613.655, 473.743 614.381, 474.899 614.684 C 476.631 615.137, 477 616.004, 477 619.617 C 477 622.846, 477.395 624, 478.500 624 C 479.611 624, 480 622.833, 480 619.500 C 480 616.167, 480.389 615, 481.500 615 C 482.325 615, 483 614.325, 483 613.500 C 483 612.392, 481.840 612, 478.559 612 C 476.116 612, 473.821 612.480, 473.458 613.067 M 484 618 C 484 622.667, 484.333 624, 485.500 624 C 486.544 624, 487.038 622.861, 487.126 620.250 L 487.253 616.500 488.312 620.288 C 489.625 624.982, 491.832 624.861, 493.585 620 L 494.848 616.500 494.924 620.250 C 494.978 622.938, 495.439 624, 496.550 624 C 497.805 624, 498.043 622.906, 497.800 618.250 C 497.537 613.203, 497.232 612.462, 495.307 612.188 C 493.497 611.930, 492.997 612.498, 492.446 615.438 C 491.596 619.965, 490.408 619.991, 489.566 615.500 C 489.027 612.629, 488.468 612, 486.455 612 C 484.121 612, 484 612.296, 484 618" stroke="none" fill="#fbfbfb" fill-rule="evenodd"/>
  <ellipse style="stroke: rgb(0, 0, 0); stroke-opacity: 0; fill: rgb(251, 251, 251);" cx="518.234" cy="625.793" rx="53.274" ry="30.919"/>
</svg>